<svg width="480" height="480" viewBox="0 0 480 480" fill="none" xmlns="http://www.w3.org/2000/svg">
<circle cx="240" cy="240" r="240" fill="url(#paint0_linear)"/>
<path d="M240.602 162C233.813 162 227.346 164.938 222.861 170.06L216.09 177.793L209.319 170.06C204.833 164.938 198.367 162 191.578 162C178.578 162 168 172.577 168 185.578C168 201.093 184.173 219.442 216.09 240.156C248.007 219.442 264.18 201.093 264.18 185.578C264.18 172.577 253.602 162 240.602 162V162Z" fill="#212121"/>
<path d="M344.675 106H86V285.624H125.525V317.333L173.088 285.624H344.675V106ZM266.467 219.053C256.342 231.137 241.179 243.423 220.113 256.613L215.337 259.603L210.561 256.613C189.495 243.423 174.333 231.137 164.208 219.053C154.281 207.204 149.247 195.322 149.247 183.735C149.247 160.809 167.899 142.158 190.825 142.158C199.71 142.158 208.279 145.006 215.337 150.162C222.396 145.006 230.964 142.158 239.849 142.158C262.775 142.158 281.427 160.809 281.427 183.735C281.427 195.323 276.394 207.204 266.467 219.053Z" fill="#212121"/>
<path d="M362.675 176.049V303.624H195.575V334.149H294.387L353.675 373.674V334.149H393.2V176.049H362.675Z" fill="#212121"/>
<defs>
<linearGradient id="paint0_linear" x1="0" y1="480" x2="579.132" y2="253.777" gradientUnits="userSpaceOnUse">
<stop stop-color="#A41FBA"/>
<stop offset="0.0001" stop-color="#B747EB"/>
<stop offset="1" stop-color="#41F1F1"/>
</linearGradient>
</defs>
</svg>
